PathFileType	4	(X/Y/Z)	Kaydara																																																																																																																									
DataRate	CameraRate	NumFrames	NumMarkers	Units	OrigDataRate	OrigDataStartFrame	OrigNumFrames																																																																																																																					
30	30	9	41	mm	30	133	354																																																																																																																					
Frame#	Time	SALE_LFHD			SALE_RFHD			SALE_LBHD			SALE_RBHD			SALE_LFTShould			SALE_RFTShould			SALE_LRRShould			SALE_RRRShould			SALE_T10			SALE_STRN			SALE_TRUN			SALE_LSHO			SALE_LUPA			SALE_LELB			SALE_LFRM			SALE_LWRA			SALE_LWRB			SALE_LFIN			SALE_RSHO			SALE_RUPA			SALE_RELB			SALE_RFRM			SALE_RWRB			SALE_RFIN			SALE_LFWT			SALE_RFWT			SALE_LBWT			SALE_RBWT			SALE_LTHI			SALE_LKNE			SALE_RWRA			SALE_LSHN			SALE_LANK			SALE_LHEE			SALE_LTOE			SALE_RTHI			SALE_RKNE			SALE_RSHN			SALE_RANK			SALE_RHEE			SALE_RTOE		
		X1	Y1	Z1	X2	Y2	Z2	X3	Y3	Z3	X4	Y4	Z4	X5	Y5	Z5	X6	Y6	Z6	X7	Y7	Z7	X8	Y8	Z8	X9	Y9	Z9	X10	Y10	Z10	X11	Y11	Z11	X12	Y12	Z12	X13	Y13	Z13	X14	Y14	Z14	X15	Y15	Z15	X16	Y16	Z16	X17	Y17	Z17	X18	Y18	Z18	X19	Y19	Z19	X20	Y20	Z20	X21	Y21	Z21	X22	Y22	Z22	X23	Y23	Z23	X24	Y24	Z24	X25	Y25	Z25	X26	Y26	Z26	X27	Y27	Z27	X28	Y28	Z28	X29	Y29	Z29	X30	Y30	Z30	X31	Y31	Z31	X32	Y32	Z32	X33	Y33	Z33	X34	Y34	Z34	X35	Y35	Z35	X36	Y36	Z36	X37	Y37	Z37	X38	Y38	Z38	X39	Y39	Z39	X40	Y40	Z40	X41	Y41	Z41
																																																																																																																												
133	4.41	251.26696	1582.39212	-1894.00513	122.7812	1579.51447	-1902.74384	253.95294	1652.65839	-2009.7818	129.38395	1644.47357	-2010.49591	276.04544	1385.55435	-2030.29037	133.29475	1384.29993	-2025.16266	266.19135	1444.95819	-2140.27542	115.77024	1450.83298	-2128.95538	186.60225	1294.18396	-2206.5332	200.20903	1312.77496	-1982.08969	197.42573	1226.79359	-1941.03729	388.39439	1409.84833	-2101.08444	426.2431	1191.01524	-2108.78098	409.95594	1081.83495	-2124.31122	435.33142	977.11021	-2087.38205	367.25269	844.49844	-2019.10141	435.00786	833.72292	-2053.90427	428.93173	793.35022	-2003.70285	24.45055	1416.66351	-2083.16971	-18.91598	1186.56776	-2139.66644	-43.22166	1087.06528	-2088.32642	-39.60124	973.57422	-2094.78806	-50.79543	837.3822	-2042.09503	-52.12068	800.52322	-1985.80841	316.58489	976.81114	-1987.00958	37.07112	978.74977	-2004.36295	267.91851	1035.84129	-2159.17923	89.75546	1042.63771	-2168.75122	311.16516	674.75815	-2152.91656	294.62952	504.7086	-2076.33987	2.19398	850.52689	-1995.03876	283.67008	306.10352	-2081.09161	274.44271	122.84101	-2131.84372	234.74241	75.12589	-2195.00122	245.27142	86.35309	-1997.91824	31.03342	723.06572	-2159.16016	45.51055	564.56474	-2054.82864	94.95676	374.42528	-2071.8454	44.19283	125.3189	-2129.73053	54.08107	78.33579	-2007.35992	89.94076	62.16018	-2197.9985
134	4.443	253.27616	1581.49277	-1892.77573	125.12124	1578.80035	-1901.58539	257.24939	1651.44028	-2006.203	131.63417	1644.23126	-2009.14246	278.16864	1385.31128	-2029.64371	135.93343	1384.0274	-2024.58633	268.46445	1444.88342	-2139.57611	117.97675	1450.85358	-2128.3049	188.70882	1294.21127	-2205.98907	202.34365	1312.55386	-1981.57608	199.58897	1226.61293	-1940.71854	390.70148	1409.68948	-2100.50858	428.22002	1190.74486	-2108.26614	411.87302	1081.57349	-2123.84476	437.07661	976.82274	-2086.69632	368.9954	844.46587	-2018.20847	436.64238	833.49625	-2053.01712	430.66257	793.29269	-2002.82745	26.6704	1416.67877	-2082.54044	-17.02668	1186.70784	-2139.2366	-41.43483	1087.1743	-2087.91977	-37.89134	973.69148	-2094.51157	-49.14155	837.4855	-2041.80099	-50.57794	800.6115	-1985.47852	318.46443	976.75697	-1986.48499	38.81861	978.85635	-2003.91983	269.83675	1035.52284	-2158.68134	91.72568	1042.43973	-2168.33252	312.51871	674.66415	-2152.20779	295.6213	504.44538	-2075.73349	3.87673	850.47836	-1994.59183	284.1609	305.90498	-2080.77225	274.62189	122.34731	-2131.43356	234.81113	75.13465	-2195.01907	245.27803	86.38109	-1997.96753	32.62289	722.93991	-2158.20618	46.81786	564.63432	-2053.83362	95.85122	374.258	-2071.0498	44.45937	125.44449	-2129.66782	54.16426	78.35902	-2007.39365	90.00394	62.14071	-2198.0275
135	4.477	255.84892	1580.75851	-1891.65817	127.4546	1578.05847	-1900.4454	258.61702	1652.08908	-2006.93253	134.04072	1643.99323	-2007.62711	280.40495	1385.06104	-2028.9299	137.93607	1384.0387	-2023.88275	270.8128	1444.82574	-2138.84506	120.37063	1450.84961	-2127.51099	190.97048	1294.23691	-2205.3244	204.55633	1312.33582	-1980.97305	201.72899	1226.30341	-1940.1474	392.95876	1409.38431	-2099.70322	430.39108	1190.50278	-2107.70309	413.89481	1081.36497	-2123.22525	439.01985	976.59004	-2086.00174	370.78266	844.37706	-2017.17865	438.34335	833.3342	-2052.05582	432.43965	793.21129	-2001.79779	28.99006	1416.71082	-2081.87027	-14.91349	1186.78238	-2138.54523	-39.46149	1087.28546	-2087.31049	-35.96698	973.76701	-2093.87894	-47.37635	837.54517	-2041.20163	-48.95473	800.67955	-1984.9202	320.33161	976.63795	-1985.71289	40.81839	979.15649	-2003.19336	271.866	1035.14771	-2158.06473	93.79497	1042.1701	-2167.76566	313.96465	674.48967	-2151.27396	296.40919	504.3771	-2074.80911	5.43007	850.5735	-1994.00528	284.68115	305.72886	-2080.30563	274.8321	122.5802	-2131.8129	234.87387	75.14885	-2195.03922	245.28435	86.38224	-1997.97653	34.17291	722.98325	-2157.17117	48.16376	564.76379	-2052.5264	96.84866	374.00043	-2070.02029	44.69407	125.48169	-2129.60098	54.19341	78.4158	-2007.43362	90.06612	62.14672	-2198.04672
136	4.51	258.45531	1579.85992	-1890.30853	130.11208	1577.14249	-1899.01321	262.09127	1650.80475	-2002.99896	136.5562	1643.63571	-2005.89569	282.94483	1384.88297	-2028.1488	140.23207	1383.88519	-2023.1134	273.63775	1444.52499	-2137.54929	122.86416	1450.84518	-2126.60889	193.40092	1294.23996	-2204.54498	206.97174	1312.1051	-1980.24872	203.98037	1226.07262	-1939.50043	395.43854	1409.3161	-2099.05594	432.58896	1190.23537	-2106.95969	416.10237	1081.10458	-2122.50977	441.11465	976.28456	-2085.19608	372.82627	844.21371	-2016.24908	440.37319	833.07343	-2051.17401	434.39129	793.08304	-2000.81146	31.49922	1416.69998	-2080.99167	-12.63187	1186.85463	-2137.84836	-37.25206	1087.32811	-2086.52252	-34.00869	973.86047	-2093.15063	-45.48795	837.69608	-2040.466	-47.22123	800.83046	-1984.08112	322.46918	976.57028	-1984.91745	42.87502	979.30023	-2002.53082	274.01266	1034.6228	-2157.39822	96.03093	1041.7897	-2167.10846	315.53513	674.43726	-2150.32272	296.91931	503.21758	-2075.96893	7.17777	850.54237	-1992.97012	285.21946	305.53289	-2079.93973	275.08444	122.56124	-2131.61209	234.97101	75.12933	-2195.07446	245.27998	86.3706	-1998.00674	35.87162	722.89841	-2155.63156	49.83688	564.87457	-2050.75653	98.03628	373.70415	-2068.67279	45.00939	125.61014	-2129.4426	54.29698	78.47767	-2007.40799	90.11316	62.10552	-2198.04596
137	4.543	261.15147	1578.87421	-1888.74481	132.87265	1576.26465	-1897.41776	264.05581	1651.07651	-2002.78778	139.23516	1643.17825	-2003.96469	285.45401	1384.59412	-2027.14157	142.76801	1383.59482	-2022.25235	276.29414	1444.37836	-2136.44485	125.50364	1450.7811	-2125.55679	195.98429	1294.16946	-2203.59131	209.56579	1311.81793	-1979.34631	206.72016	1225.71098	-1938.72498	397.97848	1408.86642	-2097.85721	435.18391	1189.94698	-2106.11298	418.53188	1080.80269	-2121.67114	443.4264	975.94788	-2084.34128	374.83353	843.97392	-2015.3833	442.43488	832.70699	-2050.19135	436.3892	792.75642	-1999.81644	34.13207	1416.63284	-2080.02762	-10.15112	1186.81999	-2136.9902	-35.05461	1087.39098	-2085.67688	-31.81521	973.93074	-2092.28943	-43.42472	837.75917	-2039.46854	-45.31515	800.91881	-1983.0661	324.68899	976.54732	-1984.07074	45.2677	979.70558	-2001.45325	276.25385	1033.91182	-2156.69266	98.32623	1041.26648	-2166.38885	317.09131	674.27513	-2149.20898	298.76514	503.9513	-2073.29544	9.2254	850.76454	-1991.83685	285.91951	305.25349	-2079.47891	275.30678	122.41845	-2131.70563	235.04679	75.14595	-2195.09506	245.31761	86.37332	-1998.01971	37.61183	722.70142	-2153.73077	51.54271	565.11459	-2048.46741	99.29903	373.29079	-2067.02225	45.3792	125.77764	-2129.2569	54.38652	78.5296	-2007.44507	90.1897	62.10915	-2198.06366
138	4.577	264.08493	1577.85309	-1886.92612	135.69709	1575.15594	-1895.5571	266.60212	1650.89203	-2001.26984	142.03731	1642.59201	-2001.78818	288.38724	1384.24637	-2025.99854	146.83146	1382.16797	-2029.78775	279.08775	1444.16916	-2135.12466	128.3672	1450.62241	-2124.25308	198.76406	1294.14688	-2202.56744	212.31216	1311.25473	-1978.28537	209.5092	1225.14526	-1937.85477	400.8149	1408.63098	-2096.83151	437.79499	1189.54643	-2104.99084	421.10985	1080.43205	-2120.70618	445.79842	975.53192	-2083.35709	377.1883	843.58871	-2014.50912	444.73324	832.351	-2049.35425	438.56243	792.3542	-1998.86154	36.99265	1416.46042	-2078.78021	-7.59195	1186.79001	-2135.96985	-32.64864	1087.32338	-2084.64767	-29.47949	973.80585	-2091.16684	-41.1602	837.72659	-2038.27148	-43.30849	800.96222	-1981.80115	327.16476	976.53809	-1983.25195	47.78591	980.13397	-2000.43472	278.61721	1032.97493	-2156.02936	100.70591	1040.55634	-2165.67154	318.64517	674.2083	-2147.94815	299.89708	503.87009	-2072.11044	11.05512	850.87639	-1990.34332	286.60912	304.98913	-2078.87711	275.55117	122.34394	-2131.53442	235.17229	75.15924	-2195.08316	245.33218	86.36544	-1998.03299	39.84374	722.18018	-2151.06735	53.56695	565.30487	-2045.51147	100.76693	372.81231	-2064.94537	45.75928	125.88856	-2129.02267	54.51151	78.61661	-2007.45529	90.29301	62.15767	-2198.12119
139	4.61	266.9371	1576.5213	-1884.54803	138.71208	1573.86993	-1893.26874	270.45755	1649.16595	-1996.33728	145.03589	1641.83304	-1999.19846	291.73786	1383.91998	-2024.68338	152.05473	1381.19278	-2031.74042	282.10804	1443.96393	-2133.49564	131.41365	1450.42511	-2122.59109	201.67913	1294.1568	-2201.36185	215.32955	1310.60318	-1977.07611	212.4612	1224.32762	-1936.91391	403.90602	1408.28384	-2095.38742	440.5743	1189.08432	-2103.73169	423.90278	1080.03136	-2119.7168	448.4549	975.08736	-2082.43607	379.53938	843.26515	-2013.78235	447.20558	831.83556	-2048.45612	441.05965	791.89774	-1998.09357	40.04879	1416.2381	-2077.21893	-4.87437	1186.54419	-2134.6286	-30.10176	1087.26639	-2083.43994	-27.0695	973.62717	-2089.9646	-38.65249	837.66037	-2036.81732	-41.07316	800.97717	-1980.17166	329.68513	976.56815	-1982.31827	50.39375	980.71068	-1999.23096	281.09314	1031.80603	-2155.43304	103.19156	1039.68033	-2164.95331	320.30319	674.10141	-2146.42288	300.501	502.54341	-2073.508	13.44517	851.11267	-1988.57574	287.45829	304.76969	-2078.27423	275.8289	122.23303	-2131.42334	235.31004	75.2107	-2195.11719	245.34079	86.35404	-1998.03909	42.21249	721.80443	-2148.18085	55.64851	565.6591	-2041.8306	102.27989	372.01389	-2062.42828	46.25824	125.99333	-2128.62717	54.70322	78.6453	-2007.48322	90.35616	62.1584	-2198.14133
140	4.643	270.03036	1574.93683	-1881.83533	141.7534	1572.28302	-1890.70847	273.83331	1648.56552	-1993.55286	148.15561	1640.89951	-1996.1232	294.6559	1383.07327	-2022.92404	153.6274	1379.92188	-2028.35144	285.37651	1443.68454	-2131.58264	134.71659	1450.19547	-2120.616	204.83606	1294.21555	-2200.06134	218.60689	1309.77402	-1975.65689	215.57533	1223.35899	-1935.82153	407.12261	1407.67929	-2093.46527	443.74195	1188.61633	-2102.50534	426.94668	1079.56192	-2118.70728	451.33579	974.48769	-2081.4772	382.25292	842.6828	-2012.95349	449.88071	831.19652	-2047.58408	443.50368	791.26999	-1997.24274	43.32949	1415.95535	-2075.4068	-1.88307	1186.47873	-2133.18024	-27.45485	1087.071	-2082.10571	-24.37648	973.48625	-2088.48587	-36.05371	837.55066	-2035.20309	-38.69855	800.94078	-1978.53729	332.25132	976.62361	-1981.31271	53.17687	981.46255	-1998.00461	283.71153	1030.50369	-2154.78195	105.8003	1038.63914	-2164.19342	322.12917	674.02275	-2144.80118	302.82967	502.65194	-2071.13068	16.10991	851.10367	-1986.69724	288.6282	304.45599	-2077.78366	276.25368	122.0807	-2131.40762	235.57884	75.13308	-2195.14236	245.41908	86.34321	-1998.06351	44.62899	721.21696	-2144.62097	58.24677	566.00632	-2036.79749	104.55945	370.79308	-2059.24149	46.78888	126.1764	-2128.11539	54.87246	78.73544	-2007.50214	90.44987	62.25717	-2198.15338
141	4.677	273.349	1572.9747	-1878.65234	144.94469	1570.37033	-1887.71622	277.29103	1647.5325	-1989.84192	151.73406	1639.61456	-1992.33932	298.24724	1382.39059	-2020.98465	156.05321	1380.0618	-2023.57529	288.85571	1443.35342	-2129.31061	138.18147	1449.94461	-2118.34259	208.22123	1294.31213	-2198.57666	222.01895	1308.80295	-1974.11667	218.89286	1222.14211	-1934.58893	410.46017	1406.97647	-2091.23718	447.04315	1188.01758	-2101.10443	430.17109	1078.98705	-2117.69745	454.34818	973.8118	-2080.58121	385.06851	841.9767	-2012.21497	452.75856	830.54932	-2046.90002	446.19568	790.50896	-1996.40121	46.79029	1415.53894	-2073.33939	1.11126	1186.30554	-2131.6983	-24.66733	1086.96609	-2080.70068	-21.65386	973.15361	-2086.85654	-33.27197	837.42371	-2033.46222	-36.14313	800.90355	-1976.64734	335.01091	976.58157	-1980.20813	55.91563	982.19597	-1996.74698	286.38773	1029.08768	-2153.97812	108.45261	1037.4894	-2163.42514	324.24835	673.98567	-2143.24844	304.74157	503.36838	-2068.65997	18.42596	851.33957	-1984.56833	289.91096	304.15569	-2077.28455	276.86117	121.93894	-2131.33224	235.92789	75.0407	-2195.18967	245.56656	86.29769	-1998.09464	47.18668	720.31357	-2140.29755	61.36725	566.39725	-2029.8967	107.58872	369.05365	-2053.26477	47.50776	126.41337	-2127.18536	55.01981	78.81845	-2007.51801	90.57812	62.31667	-2198.15552
